<svg xmlns="http://www.w3.org/2000/svg" width="225.532" height="79.368" viewBox="0 0 225.532 79.368">
  <g id="Groupe_1" data-name="Groupe 1" transform="translate(0 -0.447)">
    <g id="Groupe_1-2" data-name="Groupe 1" transform="translate(-0.373 0.709)">
      <g id="Groupe_1-3" data-name="Groupe 1" transform="translate(24.498 -0.262)">
        <path id="Tracé_1" data-name="Tracé 1" d="M38.1-.262c3.241,9.24,8.233,17.728,13.327,26.047-1.552.688-3.053,2.167-4.867,1.694-4.356-1.04-8.7.563-12.674,2.241A147.467,147.467,0,0,1,38.1-.262Z" transform="translate(-33.888 0.262)" fill="#e84e1c"/>
        <path id="Tracé_2" data-name="Tracé 2" d="M55.152,69.746c5-.143,8.62-4.009,12.128-7.085,3.36,5.8,6.516,11.724,9.626,17.666a60.05,60.05,0,0,1,4.076,8.915C72.625,82.425,64.369,75.4,55.152,69.746Z" transform="translate(-39.846 -17.368)" fill="#e84e1c"/>
      </g>
      <g id="Groupe_2" data-name="Groupe 2" transform="translate(0.373 20.48)">
        <path id="Tracé_3" data-name="Tracé 3" d="M81.281,31.71c1.006-1.08,2.007-2.172,3.115-3.156.035.54.114,1.609.148,2.149a20.32,20.32,0,0,1,5.072.955c1.671.443,3.48.1,5.123.659a3.738,3.738,0,0,1-.165,3.792c-2.9-.722-5.391,1.291-7.909,2.355-1.757.767-4.276.438-5.1-1.507-.688-1.268-.08-2.65.466-3.827-.251-.477-.5-.949-.751-1.421m3.115.671c-.454,1.432,2.206,1.734,2.224.318C86.234,31.84,85.062,31.937,84.4,32.381Z" transform="translate(-23.036 -28.554)" fill="#243878"/>
        <path id="Tracé_4" data-name="Tracé 4" d="M55.468,38.29a52.3,52.3,0,0,1,18-5.566c-4.952,2.172-9.967,4.418-14.1,7.994C58.1,39.855,56.81,39.03,55.468,38.29Z" transform="translate(-15.81 -29.722)" fill="#243878"/>
        <path id="Tracé_5" data-name="Tracé 5" d="M64.378,44.626a146.313,146.313,0,0,1,12.043-9.887c-.864,2.018-1.2,4.446.716,6C73.1,42.608,69.081,44.5,65.015,46.292,64.856,45.877,64.537,45.047,64.378,44.626Z" transform="translate(-18.306 -30.287)" fill="#243878"/>
        <path id="Tracé_6" data-name="Tracé 6" d="M61.858,42.277a48.942,48.942,0,0,1,11.315-6.851c-3.423,2.8-7,5.4-10.291,8.358C62.54,43.278,62.2,42.777,61.858,42.277Z" transform="translate(-17.6 -30.479)" fill="#243878"/>
        <path id="Tracé_7" data-name="Tracé 7" d="M17.726,46.894c4.964-2,9.4-5.453,14.846-6.107A12.312,12.312,0,0,1,46.109,48.5c-4.833,2.342-9.512,5.026-14.533,6.959-4.594,1.831-9.666,2.013-14.538,1.61,5-.546,10.541-1.683,14.078-5.521-3.179,1.524-6.334,3.235-9.865,3.77-5.089.818-10.65.506-15.187-2.138,5.936,1.024,12.384.864,17.819-1.99.859-.483,1.887-.881,2.326-1.836-8.068,3.593-17.854,4.776-25.836.3A39.49,39.49,0,0,0,17.726,46.894Z" transform="translate(-0.373 -31.923)" fill="#243878"/>
        <path id="Tracé_8" data-name="Tracé 8" d="M40.33,57.048c9.063-3.889,17.6-8.915,26.723-12.662,1.012-.159,1.3,1.012,1.012,1.774-.978,3.719-3.36,6.84-5.043,10.251-.665.927-.893,2.4-2.018,2.861-.745-.978-1.638-2.314-.927-3.554,1.172-1.962,2.8-3.662,3.622-5.828-1.848,1.075-3.042,2.912-4.577,4.356-3.059,3.013-6.141,6.283-10.217,7.892a8.094,8.094,0,0,1-4.2.33,15.483,15.483,0,0,1-4.844,7.75c-1.462,1.422-3.554,2.069-4.828,3.685-3.843,5.845-7.408,11.883-11.274,17.711,1.2-4.474,2.5-8.932,3.775-13.384.312-1.74,2.7-1.939,2.951-3.73.87-3.679,1.155-7.522,2.565-11.064C34.36,60.317,37.282,58.27,40.33,57.048Z" transform="translate(-6.926 -32.986)" fill="#243878"/>
        <path id="Tracé_9" data-name="Tracé 9" d="M29.385,68.086a14.609,14.609,0,0,1,4.577-3.861,18.9,18.9,0,0,0-3.974,6.215c-1.177,2.7-1.154,5.686-1.694,8.529-.261,1.376-1.9,1.507-3.019,1.342.085-.387.256-1.166.341-1.553a10.013,10.013,0,0,1-4.333,1.114c.267-.409.8-1.228,1.063-1.637-.8-.086-1.6-.176-2.4-.274,1.427-.608,3.014-.995,4.162-2.1C26.463,73.7,27.412,70.531,29.385,68.086Z" transform="translate(-5.857 -38.548)" fill="#243878"/>
      </g>
    </g>
    <g id="AMANA-1" transform="translate(-64.305 -21.628)">
      <g id="_d25841ff" data-name="#d25841ff" transform="translate(25.093 23.255)">
        <path id="Tracé_3-2" data-name="Tracé 3" d="M180.3,24.512a7.019,7.019,0,0,1,6.574-.781c-1.035,1.763-3.357,1.578-5.008,2.411-.008.753.012,1.506.06,2.254.463.181.93.366,1.4.56,2.218-.9,3.808-3.237,6.344-3.3.709.737-.33,1.3-.761,1.844-2.6,2.347-5.245,4.649-7.8,7.053a5.182,5.182,0,0,1-1.53.942c-.165-1.562.209-3.2-.386-4.7A6.127,6.127,0,0,1,180.3,24.512Z" transform="translate(72.363 -23.255)" fill="#eb4d01"/>
        <path id="Tracé_4-2" data-name="Tracé 4" d="M156.563,27c.922-1.4,2-2.9,3.712-3.361.044,3.144-2.069,5.68-3.063,8.53a146.54,146.54,0,0,0-6.135,20.868c-.423,2.19-.962,4.573.06,6.69a6.061,6.061,0,0,0,5.575,3.7c5.668.185,11.674-.668,16.372-4.074,5.434-3.9,10.213-8.7,16-12.113,2.516-1.4,6.191-1.22,8.047,1.175,1.626,2.073,1.57,4.992.64,7.347-1.268,3.458-2.576,7.073-5.173,9.782-1.018.966-2.423,2.21-3.921,1.518a75.034,75.034,0,0,1-7.934-4.2c-1.224-.684-2.588-1.667-4.054-1.107-1.84.837-3.245,2.343-4.8,3.595-5.318,4.5-12.153,7.471-19.194,7.355-3.156-.064-6.654-1.179-8.293-4.086-1.433-2.737-1.264-5.962-1.014-8.949.793-7.065,3.482-13.755,6.755-20.011A127.07,127.07,0,0,1,156.563,27M182.87,55.446a15.219,15.219,0,0,0,4.811,2.983c.519.137,1.308.475,1.667-.137a5.962,5.962,0,0,0,.966-4.034,2.054,2.054,0,0,0-2.174-1.453A8.9,8.9,0,0,0,182.87,55.446Z" transform="translate(49.826 -23.01)" fill="#eb4d01"/>
        <path id="Tracé_5-2" data-name="Tracé 5" d="M119.783,28.414c1.7-.841,2.979-2.323,4.658-3.192a17.386,17.386,0,0,1,4.529,3.53c-1.022,1.526-2.629,2.488-3.921,3.748-.564.451-1.232,1.232-2.033.857a38.964,38.964,0,0,1-3.466-3.007c-2.492.9-4.42,2.846-6.843,3.865-.849.306-1.5-.467-2.081-.946a24.445,24.445,0,0,1-3.466-3.575c1.715-1.01,3.43-2.025,5.124-3.075.668-.374,1.469-.914,2.258-.527,1.449.616,2.681,1.638,4.106,2.3A.98.98,0,0,0,119.783,28.414Z" transform="translate(26.955 -22.007)" fill="#eb4d01"/>
        <path id="Tracé_6-2" data-name="Tracé 6" d="M142.014,25.68c.475-.286,1.1-.7,1.65-.346A22.422,22.422,0,0,1,147.9,28.82c-.918,1.373-2.492,2.049-3.776,3-.938.547-1.956,1.594-3.124,1.063a10.374,10.374,0,0,1-3.546-2.939A13.8,13.8,0,0,1,142.014,25.68Z" transform="translate(46.171 -22.023)" fill="#eb4d01"/>
        <path id="Tracé_7-2" data-name="Tracé 7" d="M184.629,35.473a22.416,22.416,0,0,1,6.062-7.109,39.842,39.842,0,0,0-1.638,7.427c-.761,5.124-1.413,10.265-2.113,15.4a19.885,19.885,0,0,1-9.1,14.669c.592-2.089,1.457-4.094,1.92-6.219,1.2-5.294,2-10.668,2.717-16.046C182.826,40.811,183.2,37.941,184.629,35.473Z" transform="translate(71.784 -20.014)" fill="#eb4d01"/>
        <path id="Tracé_8-2" data-name="Tracé 8" d="M162.6,31.791a3.24,3.24,0,0,1,.833,2.363c.141,6.908-1.381,14.2-5.845,19.665a26.775,26.775,0,0,1-13.075,8.276,20.06,20.06,0,0,1-15.84-1.328,11.308,11.308,0,0,1-4.722-4.529c-.777-1.365-1-2.967-1.763-4.331a1.609,1.609,0,0,0-2.146-.511,85.167,85.167,0,0,1-9.138,3.377c-1.864.242-4.142.6-5.664-.769a6.517,6.517,0,0,1-.443-7.894,23.477,23.477,0,0,1,9.927-8.136c2.162-.853,4.871-1.336,6.932,0,1.6,1.369,2.383,3.414,3.144,5.322.733,1.807.749,3.989,2.194,5.438a16.718,16.718,0,0,0,3.518,2.838c2.013,1.143,4.376,1.3,6.614,1.642,4.452.5,9.214.024,13.1-2.359a11.509,11.509,0,0,0,3.611-3.667,100.362,100.362,0,0,0,5.789-9.17c1.087-2.033,1.811-4.235,2.971-6.232M112.181,45.107c-.395.761-1.059,2-.028,2.544,1.659-.137,3.277-.56,4.911-.845,1.7-.386,3.607-.7,4.762-2.146a3.772,3.772,0,0,0-2.085-1.55C117.141,42.551,113.973,42.946,112.181,45.107Z" transform="translate(24.751 -17.841)" fill="#eb4d01"/>
      </g>
      <g id="_0a4884ff" data-name="#0a4884ff" transform="translate(151.47 68.839)">
        <path id="Tracé_13" data-name="Tracé 13" d="M121.2,52.672a5.184,5.184,0,0,1,7.87.632,17.971,17.971,0,0,1,2.419,7.5,68.047,68.047,0,0,1,.266,15.752c-2.516.6-5.137,1.163-7.721.636.568-5.72-.229-11.461-.7-17.157-.25-1,.085-2.552-1.119-2.967a7.222,7.222,0,0,0-2.387,2.665c-1.481,2.266-3.168,4.392-4.545,6.727,2.427.314,4.875.133,7.314.238-.242.986-.37,2.339-1.357,2.842-2.9.318-5.869.141-8.747.6-1.9,2.037-3.128,4.674-5.177,6.558-1.634.008-3.257-.238-4.887-.338,3.551-5.04,7.548-9.75,11.292-14.649A116.579,116.579,0,0,1,121.2,52.672Z" transform="translate(-102.425 -51.148)" fill="#22367a"/>
        <path id="Tracé_14" data-name="Tracé 14" d="M124.111,56.9c1.264-.085,2.677-.342,3.784.459,1.815,1.143,2.359,3.377,2.77,5.342,2.645-1.075,4.456-3.373,6.678-5.06a3.015,3.015,0,0,1,4.448,1.437c.451,1.417-.133,3.067.87,4.311,1.9-1.735,3.53-3.756,5.591-5.306a3.723,3.723,0,0,1,3.969-.491c1.506,1.163,1.6,3.269,1.622,5.02.089,1.86-.531,3.707-.274,5.559.58,1.179,1.981,1.248,3.1.97-.157-3.981,2.649-7.278,5.8-9.327,1.968-1.256,4.231-2.5,6.65-2.146,1.3.189,2.214,1.2,3.132,2.049.213-.7.427-1.4.628-2.1,1.534-.125,3.373.149,4.146,1.667.962,2.182.35,4.645-.278,6.831-.25,1.014-.785,2.089-.431,3.14A4.354,4.354,0,0,0,181.1,70c1.184-1.071,1.558-2.709,1.912-4.195a26.95,26.95,0,0,0,.33-8.357c1.787-.072,3.812-.081,5.213,1.224,1.171.95,1.449,2.488,1.88,3.848.189-.008.568-.016.757-.024.4-1.014.737-2.214,1.779-2.77a8.679,8.679,0,0,1,5.233-1.373,2.564,2.564,0,0,1,2.081,2.295c.443,2.685.113,5.467.777,8.115.225.845,1.139.942,1.864,1.055.33-5.068,4.162-9.154,8.429-11.485a5.718,5.718,0,0,1,4.484-.668,6.985,6.985,0,0,1,2.3,2.057c.531-.572,1.014-1.184,1.546-1.759,1.514.246,3.329.668,4.138,2.113,1.28,3.208-1.457,6.368-.757,9.581,1.212,1.7,3.458.394,5.044.06a.923.923,0,0,1,0,1.727,21.508,21.508,0,0,1-6.453,2.46c-1.506.225-3.679-.089-4.106-1.832-.37-.761-.334-2.254-1.542-2-1.638,1.28-2.918,3.184-5.108,3.595-2.278.713-4.5-.362-6.312-1.663-1.369-1-2.6.556-3.8,1.075-1.634.966-4.15,1.473-5.5-.205-1.477-1.731-1.115-4.134-1.288-6.227a1.528,1.528,0,0,0-2.222-1.4,18.218,18.218,0,0,0-5.543,6.98c-.354.551-.547,1.4-1.312,1.477a4.433,4.433,0,0,1-4.694-1.4c-2.343,1.316-5.277,2.049-7.838.922-1.461-.568-1.7-2.3-2.3-3.551A21.532,21.532,0,0,1,166.1,72.65a8.794,8.794,0,0,1-6.3.664,7.544,7.544,0,0,1-2.621-1.952c-1.985.205-3.1,2.339-5.153,2.363-1.5.193-3.538-.551-3.607-2.295a24.832,24.832,0,0,0-1.5-6.344c-1.828-.016-3.092,1.522-4.2,2.778a15.288,15.288,0,0,0-2.673,5.467,7.949,7.949,0,0,1-4.319-.547,21.785,21.785,0,0,0-.535-6.932,3.1,3.1,0,0,0-1.272-1.594,35.477,35.477,0,0,0-7.657,8.816c-1.5.761-3.208.3-4.782.109.849-5.43,1.783-10.853,2.633-16.283m86.758,7.8a3.663,3.663,0,0,0-.708,4.15c1.493.193,3.22.314,4.4-.825a14.169,14.169,0,0,0,3.1-4.275c.37-.7-.282-1.28-.584-1.852a10.146,10.146,0,0,0-6.2,2.8m-47.074,1.192c-.326.793-.99,1.771-.366,2.58a3.8,3.8,0,0,0,3.245-.032,5.83,5.83,0,0,0,4.231-5.962A6.949,6.949,0,0,0,163.794,65.892Z" transform="translate(-90.341 -47.569)" fill="#22367a"/>
      </g>
    </g>
  </g>
</svg>
